PathFileType	4	(X/Y/Z)	c:/Users/goper/Files/vsCode/490R/osim_files/C05/C05_SSWS_03.trc
DataRate	CameraRate	NumFrames	NumMarkers	Units                	OrigDataRate	OrigDataStartFrame	OrigNumFrames
250.00	250.00	7	36	mm	250.0	1849	2465
                Frame#	Time	LPSIS			LASIS			LTH1			LTH2			LTH3			LTH4			LLFE			LMFE			LSH1			LSH2			LSH3			LSH4			LLMAL			LMMAL			LCAL			LMTP5			LTOE			LMTP1			RPSIS			RASIS			RTH1			RTH2			RTH3			RTH4			RLFE			RMFE			RSH1			RSH2			RSH3			RSH4			RLMAL			RMMAL			RCAL			RMTP1			RTOE			RMTP5		
		X1	Y1	Z1	X2	Y2	Z2	X3	Y3	Z3	X4	Y4	Z4	X5	Y5	Z5	X6	Y6	Z6	X7	Y7	Z7	X8	Y8	Z8	X9	Y9	Z9	X10	Y10	Z10	X11	Y11	Z11	X12	Y12	Z12	X13	Y13	Z13	X14	Y14	Z14	X15	Y15	Z15	X16	Y16	Z16	X17	Y17	Z17	X18	Y18	Z18	X19	Y19	Z19	X20	Y20	Z20	X21	Y21	Z21	X22	Y22	Z22	X23	Y23	Z23	X24	Y24	Z24	X25	Y25	Z25	X26	Y26	Z26	X27	Y27	Z27	X28	Y28	Z28	X29	Y29	Z29	X30	Y30	Z30	X31	Y31	Z31	X32	Y32	Z32	X33	Y33	Z33	X34	Y34	Z34	X35	Y35	Z35	X36	Y36	Z36

1849	7.39200	-1952.66846	1037.84473	291.53296	-2152.47559	1012.45135	344.46585	-2157.47241	694.50244	393.22903	-2191.16919	642.12494	383.35764	-2224.73535	730.23303	393.89905	-2250.77661	675.20001	385.30881	-2276.76245	569.34094	365.94122	-2280.33862	558.33850	247.13885	-2232.97510	379.52551	375.79810	-2248.84106	337.63443	374.16571	-2293.58008	393.58823	391.19269	-2299.29932	350.76117	385.67715	-2333.69067	123.67049	355.93222	-2366.15771	140.80707	275.22870	-2291.28223	76.55479	298.61246	-2479.10815	99.07722	398.23419	-2511.93774	135.90590	337.06860	-2509.79297	112.06926	291.01825	-1957.21631	1050.37817	183.75241	-2151.11133	1012.89154	113.48827	-1996.06995	675.92126	69.69715	-2001.54590	615.59760	83.48153	-2071.39819	678.13916	76.14523	-2066.97705	616.61182	89.00811	0.00000	0.00000	0.00000	-2026.10571	523.28931	106.14812	-1913.85132	383.22214	95.44212	-1908.54871	335.72943	102.93525	-1973.34058	368.12149	101.66376	-1959.54993	324.13547	108.71902	-1870.06128	105.57342	158.12260	-1892.10120	115.54192	242.46892	-1803.75720	78.10902	206.08101	-2021.07410	44.30896	228.37602	-2041.08582	66.52715	179.55968	-1989.66370	40.41132	116.61134
1850	7.39600	-1957.50500	1037.05273	291.75793	-2157.52148	1011.78516	344.44330	-2159.78833	692.52136	392.99130	-2193.58496	642.60284	384.09177	-2227.75342	728.31543	394.22626	-2253.23438	673.02924	385.83783	-2279.67529	567.59076	366.31372	-2283.19287	556.41455	247.37553	-2239.86108	377.24002	376.09393	-2256.68896	335.60022	374.25595	-2300.17969	392.61618	391.33096	-2306.87866	349.87109	385.78128	-2346.94360	123.55495	355.58899	-2378.62427	141.67062	274.81631	-2305.47339	75.38916	298.35513	-2492.62500	102.30721	397.20792	-2524.72876	140.41991	336.22775	-2523.03149	116.71482	290.10364	-1961.69507	1049.72778	184.15341	-2155.50244	1012.18829	113.45592	-1998.69226	675.86578	69.48848	-2003.94446	615.42389	83.54657	-2074.14990	677.71246	76.16971	-2069.34814	616.15735	89.06955	0.00000	0.00000	0.00000	-2027.84180	523.05078	105.97420	-1914.95105	383.48386	95.40003	-1909.41968	336.02054	102.89690	-1974.23767	368.05811	101.53772	-1960.42627	324.17496	108.57832	-1870.27258	105.80451	158.16368	-1892.33569	115.69830	242.47891	-1803.85461	78.36633	206.11333	-2021.08911	44.27485	228.35240	-2041.12097	66.43079	179.56403	-1989.65540	40.40396	116.60313
1851	7.40000	-1961.89551	1036.36243	292.10550	-2162.46484	1011.06195	344.40601	-2162.94873	691.36688	393.35062	-2196.15405	640.83350	384.53757	-2230.66113	726.30859	394.54419	-2255.94482	670.81042	386.35764	-2282.42578	565.74402	366.77155	-2285.83594	554.41534	247.65634	-2246.76172	375.04279	376.43317	-2264.50317	333.73071	374.44540	-2306.87402	391.82892	391.44974	-2314.32642	349.09760	385.86835	-2359.85938	123.60973	355.21765	-2390.75562	142.70395	274.28198	-2319.60498	74.23191	298.53571	-2506.17407	105.93092	396.23840	-2537.42090	144.75612	335.70676	-2535.89062	121.41729	289.07864	-1966.44800	1049.00452	184.35762	-2160.09912	1011.85815	113.63750	-2001.40210	675.82922	69.33479	0.00000	0.00000	0.00000	-2076.76782	677.21375	76.10345	-2071.72925	615.75879	88.99798	0.00000	0.00000	0.00000	-2029.56580	522.80005	105.73487	-1916.01221	383.72882	95.29700	-1910.30042	336.27310	102.85171	-1975.29626	368.05176	101.35958	-1961.18298	324.18991	108.44041	-1870.45056	106.02905	158.16591	-1892.58386	115.87462	242.49316	-1803.95593	78.58773	206.11304	-2021.07288	44.22300	228.32011	-2041.17346	66.32221	179.56693	-1989.64062	40.38913	116.60645
1852	7.40400	-1967.33032	1035.41040	292.28757	-2167.60498	1010.28955	344.36639	-2165.69214	689.67810	393.42221	-2197.83813	638.22589	384.75882	-2233.77954	724.26978	394.86697	-2258.65063	668.54913	386.93414	-2285.54150	564.07227	367.29379	-2288.41772	552.42310	247.91235	-2253.72388	372.91583	376.77795	-2272.26709	332.02557	374.73062	-2313.40283	390.86710	391.65195	-2321.80591	348.37781	385.97559	-2372.35229	123.77158	354.71780	-2402.54956	143.91489	273.73608	-2332.83472	73.45129	297.89529	-2519.25732	109.48840	395.14014	-2549.20312	149.27190	334.49786	-2548.24927	126.07371	287.88849	-1971.13879	1048.16565	184.67426	-2164.39575	1010.77380	113.31639	-2004.02893	675.73090	69.24199	-2008.85730	615.14594	83.19887	-2079.52490	676.69574	76.07899	-2074.08472	615.31024	88.96911	0.00000	0.00000	0.00000	-2031.39258	522.47211	105.55927	-1917.10999	383.90726	95.28131	-1911.37390	336.46887	102.77255	-1976.36755	367.99661	101.18179	-1962.18250	324.22769	108.25143	-1870.66052	106.25575	158.19475	-1892.78821	116.02537	242.51866	-1804.05737	78.80431	206.15411	-2021.09680	44.14984	228.30019	-2041.18640	66.20965	179.53766	-1989.67090	40.36056	116.59743
1853	7.40800	-1972.29041	1034.54443	292.47479	-2172.70142	1009.44495	344.30194	-2168.68042	688.17383	393.81314	-2201.29541	637.01093	385.50150	-2236.94092	722.26685	395.26230	-2261.53149	666.41107	387.54028	-2288.69238	562.37616	367.89822	-2290.89136	550.36639	248.26790	-2260.53174	370.91699	377.23349	-2279.96313	330.48441	375.10800	-2320.04541	390.17673	391.80566	-2329.29956	347.80188	386.12598	-2384.57056	124.07678	354.10748	-2413.58569	145.04219	272.92041	-2345.44727	72.85077	297.67358	-2531.92822	113.06947	393.91739	-2560.65381	153.85158	333.05692	-2560.00464	130.56393	286.67172	-1975.79395	1047.34436	184.96822	-2168.93799	1009.99902	113.22791	-2006.87708	675.62817	69.06596	-2011.10059	615.00470	82.99254	-2082.31348	676.17535	75.97350	-2076.45581	614.93469	88.71770	0.00000	0.00000	0.00000	-2033.29248	522.15674	105.34485	-1918.43542	384.05621	95.20680	-1912.31836	336.65475	102.69079	-1977.49597	367.92480	101.05344	-1963.14990	324.20349	108.09081	-1870.90173	106.50980	158.18823	-1893.04102	116.21375	242.51534	-1804.18689	79.07445	206.13550	-2021.14038	44.07586	228.25877	-2041.29712	66.07297	179.51778	-1989.66284	40.30005	116.57460
1854	7.41200	-1977.20386	1033.66052	292.70181	-2177.68652	1008.51849	344.19986	-2171.48120	686.27234	393.96313	-2204.18384	635.10120	386.11328	-2240.28906	720.33875	395.61008	-2264.47876	664.23975	388.12543	-2292.33569	561.03339	367.99759	-2293.42139	548.46356	248.67538	-2267.46313	369.01151	377.73322	-2287.57397	329.10681	375.57404	-2326.55493	389.37332	392.04984	-2336.53271	347.15460	386.22403	-2396.29590	124.52231	353.46841	-2424.35840	146.38826	272.13208	-2358.25781	73.18826	296.85620	-2544.07935	116.52671	392.60223	-2571.67456	158.05186	331.67108	-2571.36353	135.01796	285.23373	-1980.41211	1046.50769	185.21257	-2173.37573	1009.14886	113.10664	-2009.59167	675.52856	69.04681	-2013.72180	614.89099	82.92668	-2085.19360	675.57501	75.85502	-2078.98706	614.25610	88.81348	0.00000	0.00000	0.00000	-2035.21716	521.81543	105.09177	-1919.62854	384.30237	95.09660	-1913.43213	336.88504	102.62354	-1978.73071	367.84848	100.87112	-1964.13818	324.16595	108.00858	-1871.06702	106.77757	158.16211	-1893.31897	116.39850	242.49408	-1804.28088	79.31069	206.13066	-2021.20483	44.02769	228.19244	-2041.08057	65.93117	179.84679	-1989.70276	40.24451	116.54900
1855	7.41600	-1982.20374	1032.67859	292.92407	-2182.93091	1007.58325	344.07394	-2174.92407	684.88092	394.42389	-2207.01514	633.33618	386.66885	-2243.81885	718.49408	396.01099	-2267.80493	662.31372	388.90140	-2295.46143	559.28137	369.44843	-2295.70435	546.56274	249.14905	-2274.19653	367.19098	378.34021	-2295.08252	327.89233	376.12527	-2333.01221	388.67746	392.33527	-2343.75464	346.61890	386.32980	-2407.57495	124.96763	352.75430	-2434.91235	147.76039	271.36523	-2370.43066	73.10891	296.14148	-2555.68970	119.83473	391.11548	-2582.33618	162.07233	330.35312	-2582.06030	139.27501	283.72525	-1985.15393	1045.55640	185.51247	-2177.95874	1008.29767	112.90928	-2012.56165	675.35120	68.93534	0.00000	0.00000	0.00000	-2088.05908	675.00427	75.68182	-2081.44873	613.69873	88.68723	0.00000	0.00000	0.00000	-2037.27454	521.42285	104.91976	-1921.11707	384.43427	95.03910	-1914.66785	337.02576	102.53877	-1980.02917	367.73590	100.73739	-1965.36047	324.17722	107.82127	-1871.32092	106.99403	158.16403	-1893.60754	116.59081	242.49481	-1804.45874	79.57478	206.13995	-2021.27905	43.94177	228.15344	-2041.28357	65.92348	179.57657	-1989.71741	40.18224	116.51663
